<?xml version="1.0" standalone="no"?><!DOCTYPE svg PUBLIC "-//W3C//DTD SVG 1.1//EN" "http://www.w3.org/Graphics/SVG/1.1/DTD/svg11.dtd"><svg t="1616664410843" class="icon" viewBox="0 0 1024 1024" version="1.1" xmlns="http://www.w3.org/2000/svg" p-id="791" xmlns:xlink="http://www.w3.org/1999/xlink" width="200" height="200"><defs><style type="text/css"></style></defs><path d="M745.813333 279.466667l-121.173333-121.173334a42.666667 42.666667 0 0 0-60.586667 0 42.666667 42.666667 0 0 0 0 60.16l90.453334 90.453334-345.6 345.6-90.453334-90.453334a42.666667 42.666667 0 0 0-60.16 0 42.666667 42.666667 0 0 0 0 60.586667l119.893334 119.893333 119.893333 119.893334a42.666667 42.666667 0 0 0 30.293333 12.8 42.666667 42.666667 0 0 0 30.293334-72.96l-89.173334-89.173334 345.6-345.6 90.453334 90.453334a42.666667 42.666667 0 1 0 60.16-60.586667zM158.293333 744.96a42.666667 42.666667 0 0 0-60.586666 60.586667l120.746666 120.746666a42.666667 42.666667 0 0 0 30.293334 12.373334 42.666667 42.666667 0 0 0 30.293333-12.373334 42.666667 42.666667 0 0 0 0-60.586666z m768-526.506667l-120.746666-120.746666a42.666667 42.666667 0 0 0-60.586667 60.586666l120.746667 120.746667a42.666667 42.666667 0 0 0 60.586666 0 42.666667 42.666667 0 0 0 0-60.586667z" p-id="792"></path></svg>